<?xml version="1.0" encoding="utf-8"?>
<!-- Generator: Adobe Illustrator 24.2.1, SVG Export Plug-In . SVG Version: 6.00 Build 0)  -->
<svg version="1.1" id="Layer_1" xmlns="http://www.w3.org/2000/svg" xmlns:xlink="http://www.w3.org/1999/xlink" x="0px" y="0px"
	 viewBox="0 0 512 512" style="enable-background:new 0 0 512 512;" xml:space="preserve">
<style type="text/css">
	.st0{fill:#5501AA;}
	.st1{fill:#59B02D;}
	.st2{fill:#DAAB19;}
</style>
<g>
	<g>
		<path class="st1" d="M256,512C114.8,512,0,397.2,0,256S114.8,0,256,0s256,114.8,256,256S397.2,512,256,512z M256,23.3
			C127.7,23.3,23.3,127.7,23.3,256S127.7,488.7,256,488.7c128.3,0,232.7-104.4,232.7-232.7S384.3,23.3,256,23.3z"/>
	</g>
	<g id="Layer_3_17_">
		<g>
			<g>
				<g>
					<path class="st1" d="M246.3,210.1c0.3,0.1,0.5,0.1,0.8,0.1c0.6,0,1.1-0.2,1.6-0.4C247.8,209.9,247.1,210,246.3,210.1z
						 M405.2,288.2l-15.8-6.7c-1.9-0.8-3.9-1.1-5.9-0.8c-3.5-11.5-9.7-22.3-18.3-31.9c1-4.7,1.6-9.7,1.8-14.7
						c0.3-7.7-0.3-18.5-4.8-26.6c-0.6-1.1-1.8-1.9-3.1-1.9c-18.5-1-33.8,6-42.6,11.3c-8.2-2.9-16.8-5.1-25.7-6.5
						c-1.9,3-4.1,5.8-6.6,8.3c8.2,1,16,2.6,23.5,4.9c-0.1,0.3-0.3,0.6-0.3,0.9c-4.9,22.3,1.8,34.4,8.4,40.5c8,7.5,18.7,9.7,26.6,9.7
						c3.5,0,6.5-0.4,8.4-1c4.1-1.2,7.7-5.4,10.7-12.7c0.2-0.5,0.4-1.1,0.6-1.6c6.3,8.1,10.9,17.1,13.4,26.6
						c1.5,5.6,2.3,11.4,2.3,17.4c0,7.7-1.3,15.2-3.8,22.3c-6.7,19.3-21.9,35.9-42.3,47.3c-4.7,2.6-9.7,5-14.9,7
						c-6.4,2.5-13.2,4.6-20.3,6.1c-2.5,0.5-5,1-7.5,1.4c-7,1.1-14.3,1.7-21.7,1.7c-7.4,0-14.7-0.6-21.7-1.7c-2.5-0.4-5-0.9-7.5-1.4
						c-7.1-1.5-13.8-3.5-20.3-6.1c-5.2-2-10.2-4.4-14.9-7c-27.9-15.6-46-41-46-69.6c0-33.8,25.4-63.2,62.1-77.1
						c-3-1.9-5.8-4.1-8.3-6.5c-10,4.3-19.3,9.7-27.5,16.2c-19.6,15.4-31.7,35.3-34.7,56.7c-2.6,1.2-7,3.1-11.8,4
						c0.3-1.1,0.6-2.1,0.7-3.1c0.9-5.4-0.4-10.6-3.4-14.3c-6.7-8.2-22.6-2.6-21.9,8.2c0.3,3.9,2.7,7.6,5.4,10.3
						c0.8,0.9,5.2,4.7,9.3,4.9c-3.1,4.1-7.5,8-13.2,11.7c-1.4,0.9-1.8,2.8-0.9,4.2c0.6,0.9,1.6,1.4,2.6,1.4c0.6,0,1.1-0.2,1.6-0.5
						c8.8-5.7,13.9-11.4,16.9-16.4c2-0.1,4.1-0.5,6.2-1c2.9-0.7,5.6-1.6,7.8-2.6c-0.1,1.2-0.1,2.5-0.1,3.7
						c0,25.5,12.6,49.5,35.4,67.4c4.4,3.4,9,6.6,14,9.4c-1,3.1-1.1,6.7-0.2,10.1l5.3,20.6c1.3,5.2,4.8,8.6,8.9,8.6h19.8
						c4.1,0,7.6-3.4,8.9-8.6l3.7-14.5c7.7,1.2,15.7,1.9,23.8,1.9c8.1,0,16-0.6,23.8-1.9l3.7,14.5c1.3,5.2,4.8,8.6,8.9,8.6h19.8
						c4.1,0,7.6-3.4,8.9-8.6l5.3-20.6c0.9-3.3,0.7-7-0.2-10.1c4.9-2.8,9.6-6,14-9.4c11.7-9.2,20.7-20,26.7-31.8
						c0.2,0.2,0.5,0.4,0.7,0.5c1.8,1.2,4,1.8,6.1,1.8c1.5,0,2.9-0.3,4.3-0.9l15.8-6.7c4.1-1.7,6.7-5.7,6.7-10.2v-25.3
						C412,293.9,409.3,289.9,405.2,288.2z M358.6,242.1c-0.5,3.7-1.3,7.3-2.3,10.6c-0.6,1.9-1.2,3.8-1.9,5.5c-2.4,5.9-4.8,8-5.8,8.2
						c-5.4,1.6-19.2,1.1-27.8-6.9c-7.2-6.8-9.4-17.6-6.5-32.1c0.3-0.3,0.8-0.6,1.4-1c2-1.5,5.4-3.7,9.8-5.9
						c7.7-3.9,18.5-7.7,30.8-7.5C359.7,220.4,360.1,231.7,358.6,242.1z M131.6,292.7c-0.2,1.5-0.7,3-1.3,4.4
						c-0.3,0.7-5.6-1.5-6.1-1.8c-1.8-1.1-3.4-2.8-4.5-4.5c-0.9-1.4-1.5-3.1-1.2-4.8c0.5-3,4-4.4,6.7-4.4c1.7,0,3.3,0.5,4.2,1.6
						C131.4,285.6,132.2,289.1,131.6,292.7z M232.6,409c-0.5,2-1.4,2.8-1.6,2.9h-19.7c-0.2-0.1-1.1-0.9-1.6-2.9l-5.3-20.6
						c-0.4-1.6-0.4-3.2-0.2-4.5c9.9,4.9,20.7,8.6,32,11L232.6,409z M330.5,388.4l-5.3,20.6c-0.5,2-1.4,2.8-1.6,2.9h-19.7
						c-0.2-0.1-1.1-0.9-1.6-2.9l-3.6-14c11.3-2.4,22.1-6.1,32-11C330.9,385.3,330.9,386.8,330.5,388.4z M404.4,323.7
						c0,1.4-0.8,2.6-2.1,3.2l-15.8,6.7c-1.1,0.5-2.3,0.3-3.3-0.3c-0.7-0.5-1.2-1.2-1.4-2c3.4-8.9,5.2-18.3,5.2-27.8
						c0-5.2-0.5-10.3-1.5-15.2c0.3,0,0.7,0.1,1,0.3l15.8,6.7c1.3,0.5,2.1,1.8,2.1,3.2V323.7z"/>
				</g>
			</g>
			<g>
				<g>
					<path class="st1" d="M301.5,244.2c-1.2-8.1-6.3-14.6-6.5-14.8c-0.5-0.6-1.2-1-2-1.1c-0.4-0.1-7.8-1.2-18.6-1.8
						c-3,1.9-6.3,3.5-9.7,4.7c12.3,0.2,22.3,1.4,25.8,1.9c1,1.4,2.8,4.3,4,7.9c-35.4-7.4-69.9-0.9-86.9,3.5l5.9-5.6
						c6.4-2.9,13.8-4.7,21.4-5.9c-3.4-0.8-6.6-1.9-9.7-3.4c-5.6,1.3-10.6,3-15.1,5c-0.3,0.1-0.6,0.3-0.8,0.6l-13.8,13.2
						c-0.9,0.9-1,2.2-0.2,3.2c0.6,0.7,1.5,1.1,2.5,1.1c0.4,0,0.8-0.1,1.1-0.2c0.5-0.2,50.4-17.2,98.7-5.4c1,0.2,2,0,2.8-0.5
						C301.3,245.9,301.7,245.1,301.5,244.2z"/>
				</g>
			</g>
			<g>
				<g>
					<path class="st1" d="M353.6,279.9L353.6,279.9L353.6,279.9 M353.6,279.9c0.9,0.2,3.8,4.2,3.8,12.1c0,8-2.9,12-3.8,12.1
						c-0.9-0.2-3.8-4.2-3.8-12.1C349.8,284.1,352.6,280.1,353.6,279.9 M353.6,276.1c-4.2,0-7.6,7.1-7.6,15.9
						c0,8.8,3.4,15.9,7.6,15.9s7.6-7.1,7.6-15.9C361.1,283.3,357.7,276.1,353.6,276.1L353.6,276.1z"/>
				</g>
			</g>
			<g>
				<g>
					<g>
						<g>
							<path class="st1" d="M259.4,191.7c0,5.7-3.9,10.6-9.2,12v3.4c0,1.2-0.7,2.2-1.6,2.8c-0.5,0.3-1,0.4-1.6,0.4
								c-0.3,0-0.5,0-0.8-0.1c-1.4-0.3-2.4-1.6-2.4-3.1V204h-6.2c-1.8,0-3.2-1.4-3.2-3.2s1.4-3.2,3.2-3.2h9.4c3.3,0,5.9-2.7,5.9-6
								c0-3.3-2.7-6-6-6c-6.8,0-12.3-5.6-12.3-12.4c0-5.7,3.9-10.6,9.2-12v-3.4c0-1.8,1.4-3.2,3.2-3.2c1.8,0,3.2,1.4,3.2,3.2v2.9
								h5.9c1.8,0,3.2,1.4,3.2,3.2s-1.4,3.2-3.2,3.2h-9.1c-1.7,0-3.1,0.7-4.2,1.8c-1.1,1.1-1.7,2.6-1.7,4.3c0,3.3,2.7,6,6,6
								C253.9,179.3,259.4,184.8,259.4,191.7z"/>
						</g>
					</g>
				</g>
			</g>
			<g>
				<path class="st1" d="M247,130.5c-28.7,0-52,23.3-52,52c0,14.7,6.1,27.9,15.9,37.4c2.5,2.4,5.3,4.6,8.3,6.5c1.9,1.2,4,2.3,6,3.3
					c3.1,1.4,6.3,2.6,9.7,3.4c0,0,0,0,0,0c3.9,0.9,7.9,1.4,12,1.4c6.3,0,12.3-1.1,17.9-3.2c3.4-1.2,6.6-2.8,9.7-4.7
					c3.5-2.2,6.8-4.8,9.7-7.8c2.5-2.5,4.7-5.3,6.6-8.3c5.2-8.1,8.2-17.7,8.2-28C298.9,153.7,275.7,130.5,247,130.5z M269.9,217.7
					c-6.6,4.3-14.5,6.8-22.9,6.8c-5,0-9.8-0.9-14.2-2.5c-4.1-1.5-7.9-3.6-11.3-6.2c-10-7.7-16.5-19.8-16.5-33.4
					c0-23.2,18.9-42.1,42.1-42.1c23.2,0,42.1,18.9,42.1,42.1c0,10.1-3.6,19.4-9.5,26.7C276.8,212.4,273.5,215.4,269.9,217.7z"/>
			</g>
			<g>
				<g>
					<g>
						<g>
							<path class="st1" d="M168.1,141c2,4.6,0.6,9.8-3.1,12.8l1.2,2.7c0.6,1.4,0,3.1-1.4,3.7c-1.4,0.6-3.1,0-3.7-1.4l-1-2.4l-5,2.2
								c-1.4,0.6-3.1,0-3.7-1.4c-0.6-1.4,0-3.1,1.4-3.7l7.5-3.3c0,0,0,0,0,0c0,0,0,0,0,0l0,0l0,0c2.6-1.2,3.8-4.3,2.6-6.9
								c-1.2-2.7-4.3-3.9-6.9-2.7c-5.5,2.4-11.9-0.1-14.3-5.6c-2-4.6-0.6-9.8,3.1-12.8l-1.2-2.7c-0.6-1.4,0-3.1,1.4-3.7
								c1.4-0.6,3.1,0,3.7,1.4l1,2.4l4.7-2.1c1.4-0.6,3.1,0,3.7,1.4c0.6,1.4,0,3.1-1.4,3.7l-7.3,3.2c0,0,0,0,0,0l0,0
								c-2.6,1.2-3.8,4.3-2.7,6.9s4.3,3.9,6.9,2.7C159.3,133,165.7,135.5,168.1,141z"/>
						</g>
					</g>
				</g>
				<g>
					<g>
						<path class="st1" d="M160.3,150.2L160.3,150.2C160.3,150.2,160.3,150.2,160.3,150.2C160.3,150.2,160.3,150.2,160.3,150.2z"/>
					</g>
				</g>
			</g>
			<g>
				<path class="st1" d="M196.6,119.7c-7.5-17.1-24.2-27.2-41.7-27.2c-6.1,0-12.3,1.2-18.3,3.9c-23,10.1-33.5,37-23.4,60
					c7.5,17.1,24.2,27.2,41.7,27.2c6.1,0,12.3-1.2,18.3-3.8C196.2,169.6,206.7,142.7,196.6,119.7z M169.7,171.8
					c-4.7,2.1-9.7,3.1-14.8,3.1c-14.6,0-27.9-8.7-33.8-22.1c-8.2-18.6,0.3-40.4,18.9-48.6c4.7-2.1,9.7-3.1,14.8-3.1
					c14.6,0,27.9,8.7,33.8,22.1C196.8,141.8,188.3,163.6,169.7,171.8z"/>
			</g>
		</g>
	</g>
</g>
</svg>
