<?xml version="1.0" encoding="utf-8"?>
<!-- Generator: Adobe Illustrator 24.2.1, SVG Export Plug-In . SVG Version: 6.00 Build 0)  -->
<svg version="1.1" id="Layer_1" xmlns="http://www.w3.org/2000/svg" xmlns:xlink="http://www.w3.org/1999/xlink" x="0px" y="0px"
	 viewBox="0 0 512 512" style="enable-background:new 0 0 512 512;" xml:space="preserve">
<style type="text/css">
	.st0{fill:#5501AA;}
	.st1{fill:#59B02D;}
	.st2{fill:#DAAB19;}
</style>
<g>
	<g>
		<path class="st0" d="M256,512C114.8,512,0,397.2,0,256S114.8,0,256,0s256,114.8,256,256S397.2,512,256,512z M256,23.3
			C127.7,23.3,23.3,127.7,23.3,256S127.7,488.7,256,488.7S488.7,384.3,488.7,256S384.3,23.3,256,23.3z"/>
	</g>
	<g id="Layer_3_19_">
		<g>
			<g>
				<g>
					<path class="st0" d="M75.6,187v109.9h53.7v63.2c0,6.3,5.1,11.5,11.5,11.5h230.4c6.3,0,11.5-5.1,11.5-11.5v-63.2h53.7V187H75.6z
						 M369.8,358.7H142.2v-96.4c0-6,4.9-10.9,10.9-10.9h205.8c6,0,10.9,4.9,10.9,10.9V358.7L369.8,358.7z M422.9,283.4h-40.2v-35.5
						h13.7c3.6,0,6.4-2.9,6.4-6.4s-2.9-6.4-6.4-6.4H115.6c-3.6,0-6.4,2.9-6.4,6.4s2.9,6.4,6.4,6.4h13.7v35.5H89.1v-82.9h333.7V283.4
						z"/>
				</g>
			</g>
			<g>
				<g>
					<g>
						<g>
							<g>
								<path class="st0" d="M269.8,315.1c0,6.2-4.2,11.5-10,13v3.7c0,1.3-0.7,2.4-1.8,3c-0.5,0.3-1.1,0.4-1.7,0.4
									c-0.3,0-0.6,0-0.9-0.1c-1.5-0.4-2.6-1.7-2.6-3.4v-3.2h-6.7c-1.9,0-3.5-1.6-3.5-3.5c0-1.9,1.6-3.5,3.5-3.5h10.3
									c3.6,0,6.5-3,6.5-6.5c0-3.6-2.9-6.5-6.5-6.5c-6.4,0-11.8-4.5-13.1-10.5c-0.2-1-0.3-2-0.3-3c0-3.3,1.2-6.3,3.2-8.7
									c1.8-2.1,4.1-3.6,6.8-4.3v-3.7c0-1.9,1.6-3.5,3.5-3.5c1.9,0,3.5,1.6,3.5,3.5v3.2h6.4c1.9,0,3.5,1.6,3.5,3.5
									c0,0.5-0.1,0.9-0.3,1.3c-0.5,1.3-1.8,2.1-3.2,2.1h-9.9c-1.8,0-3.4,0.7-4.6,1.9s-1.9,2.8-1.9,4.6c0,1.1,0.3,2.1,0.7,3
									c1.1,2.1,3.3,3.6,5.8,3.6C263.7,301.6,269.8,307.6,269.8,315.1z"/>
							</g>
						</g>
					</g>
				</g>
			</g>
			<g>
				<g>
					<path class="st0" d="M356.1,280.6c-10.5,0-19-8.5-19-19v-2.7H174.9v2.7c0,10.5-8.5,19-19,19h-2.7v48.9h2.7c10.5,0,19,8.5,19,19
						v2.7h162.1v-2.7c0-10.5,8.5-19,19-19h2.7v-48.9H356.1z M353.4,285.9v38.4c-11.3,1.3-20.3,10.3-21.6,21.6H180.2
						c-1.3-11.3-10.3-20.3-21.6-21.6v-38.4c3-0.3,5.7-1.2,8.3-2.5c7.2-3.6,12.4-10.8,13.3-19.1h151.5c0.9,8.4,6.1,15.5,13.3,19.1
						C347.6,284.7,350.4,285.6,353.4,285.9z"/>
				</g>
			</g>
		</g>
	</g>
</g>
</svg>
