<?xml version="1.0" encoding="utf-8"?>
<!-- Generator: Adobe Illustrator 24.2.1, SVG Export Plug-In . SVG Version: 6.00 Build 0)  -->
<svg version="1.1" id="Layer_1" xmlns="http://www.w3.org/2000/svg" xmlns:xlink="http://www.w3.org/1999/xlink" x="0px" y="0px"
	 viewBox="0 0 512 512" style="enable-background:new 0 0 512 512;" xml:space="preserve">
<style type="text/css">
	.st0{fill:#5501AA;}
	.st1{fill:#59B02D;}
	.st2{fill:#DAAB19;}
</style>
<g>
	<g>
		<path class="st1" d="M256,512C114.8,512,0,397.2,0,256S114.8,0,256,0s256,114.8,256,256S397.2,512,256,512z M256,23.3
			C127.7,23.3,23.3,127.7,23.3,256S127.7,488.7,256,488.7S488.7,384.3,488.7,256S384.3,23.3,256,23.3z"/>
	</g>
	<g>
		<g>
			<g>
				<path class="st1" d="M166.8,359.6l156.9,1.6c-6.2,4.2-13.5,10.9-19.5,15.3c-3.7,2.7,0.1,8.3,4,5.9c12.4-7.6,30.7-19.8,40.4-26.3
					c-9.7-6.4-27.7-18.5-40.6-26.4c-3.9-2.4-7.7,3.2-4,5.9c5.8,4.3,13.7,11.3,19.5,15.3l-156.8,1.6
					C162.2,352.5,162.2,359.4,166.8,359.6z"/>
			</g>
		</g>
		<g>
			<g>
				<path class="st1" d="M393.1,322c-8.8-8.8-20.9-14.2-34.3-14.2h-27.4v-91.9h44.1c16.3,0,28-11.7,28-28v-52.6
					c0-8.4-1.9-14.4-7.5-19.7c-5.3-5.1-12.5-8.3-20.5-8.3h-52.6c-16.3,0-28,11.7-28,28v32.3H180.6v140.2h-27.4
					c-26.8,0-48.5,21.7-48.5,48.5c0,13.4,5.4,25.5,14.2,34.3c8.8,8.8,20.9,14.2,34.3,14.2h205.6c26.8,0,48.5-21.7,48.5-48.5
					C407.3,342.9,401.8,330.8,393.1,322z M306,135.3c0-9.3,7.6-16.9,16.9-16.9h52.6c4.9,0,9.3,2.1,12.4,5.5c2.7,3,4.5,7,4.5,11.4
					v52.6c0,9.3-7.6,16.9-16.9,16.9h-52.6c-1.1,0-2.2-0.1-3.3-0.3c-7.7-1.5-13.6-8.4-13.6-16.6V135.3z M231.8,179.4h48.5v51.2
					l-21.9-16.6c-0.7-0.5-1.5-0.8-2.4-0.8c-0.8,0-1.7,0.3-2.4,0.8l-21.9,16.6V179.4z M192.4,185.5c0-3.3,2.7-6.1,6.1-6.1h25.4v59.1
					c0,1.5,0.9,2.9,2.2,3.5c1.3,0.7,2.9,0.5,4.1-0.4l25.8-19.5l25.8,19.5c0.7,0.5,1.5,0.8,2.4,0.8c0.6,0,1.2-0.1,1.8-0.4
					c1.3-0.7,2.2-2,2.2-3.5v-59.1h6.7v8.5c0,15.2,10,26.2,24.8,27.8v84.8c0,3.4-2.7,6.1-6.1,6.1h-115c-3.4,0-6.1-2.7-6.1-6.1V185.5z
					 M358.8,392.9H153.2c-20.2,0-36.6-16.4-36.6-36.6c0-20.2,16.4-36.6,36.6-36.6h205.6c20.2,0,36.6,16.4,36.6,36.6
					C395.5,376.5,379,392.9,358.8,392.9z"/>
			</g>
		</g>
		<g>
			<g>
				<path class="st1" d="M386,139.5l-43.9,54.1c-1.4,1.7-3.4,2.7-5.6,2.7h-0.1c-1.9,0-3.6-0.8-4.9-2.1c-0.2-0.2-0.5-0.5-0.7-0.8
					l-18.8-24.8c-0.2-0.3-0.4-0.6-0.6-0.9c-1.7-3.1-0.9-7,2-9.2c3.2-2.4,7.7-1.8,10.1,1.4l5.9,7.8l2.1,2.7l5.3,7l38.1-46.9
					c2.5-3.1,7.1-3.6,10.2-1.1C388,131.8,388.5,136.4,386,139.5z"/>
			</g>
		</g>
	</g>
</g>
</svg>
