<?xml version="1.0" encoding="utf-8"?>
<!-- Generator: Adobe Illustrator 24.2.1, SVG Export Plug-In . SVG Version: 6.00 Build 0)  -->
<svg version="1.1" id="Layer_1" xmlns="http://www.w3.org/2000/svg" xmlns:xlink="http://www.w3.org/1999/xlink" x="0px" y="0px"
	 viewBox="0 0 512 512" style="enable-background:new 0 0 512 512;" xml:space="preserve">
<style type="text/css">
	.st0{fill:#FFFFFF;}
</style>
<g>
	<g>
		<path class="st0" d="M256,512C114.9,512,0,397.1,0,256S114.9,0,256,0s256,114.8,256,256S397.1,512,256,512z M256,23.3
			C127.7,23.3,23.3,127.7,23.3,256S127.7,488.7,256,488.7S488.7,384.3,488.7,256S384.3,23.3,256,23.3z"/>
	</g>
	<g id="Layer_2_4_">
		<g>
			<g>
				<path class="st0" d="M179.9,97.8v151.4h151.4V97.8H179.9z M279.9,109.6V161l-22-16.6c-0.7-0.5-1.6-0.8-2.4-0.8
					c-0.8,0-1.7,0.3-2.4,0.8l-22,16.6v-51.4H279.9z M319.4,232.7c0,2.5-2.1,4.6-4.6,4.6H196.4c-2.5,0-4.6-2.1-4.6-4.6V114.2
					c0-2.5,2.1-4.6,4.6-4.6h27V169c0,1.5,0.9,2.9,2.2,3.5c1.3,0.7,2.9,0.5,4.1-0.4l25.9-19.6l25.9,19.6c0.7,0.5,1.5,0.8,2.4,0.8
					c0.6,0,1.2-0.1,1.8-0.4c1.3-0.7,2.2-2,2.2-3.5v-59.4h27c2.5,0,4.6,2.1,4.6,4.6L319.4,232.7L319.4,232.7z"/>
			</g>
		</g>
		<g>
			<g>
				<path class="st0" d="M104.7,248.9v151.4h151.4V248.9H104.7z M204.8,260.7v51.4l-22-16.6c-0.7-0.5-1.6-0.8-2.4-0.8
					c-0.8,0-1.7,0.3-2.4,0.8l-22,16.6v-51.4H204.8z M244.3,383.8c0,2.5-2.1,4.6-4.6,4.6H121.2c-2.5,0-4.6-2.1-4.6-4.6V265.3
					c0-2.5,2.1-4.6,4.6-4.6h27v59.4c0,1.5,0.9,2.9,2.2,3.5c1.3,0.7,2.9,0.5,4.1-0.4l25.9-19.6l25.9,19.6c0.7,0.5,1.5,0.8,2.4,0.8
					c0.6,0,1.2-0.1,1.8-0.4c1.3-0.7,2.2-2,2.2-3.5v-59.4h27c2.5,0,4.6,2.1,4.6,4.6L244.3,383.8L244.3,383.8z"/>
			</g>
		</g>
		<g>
			<g>
				<path class="st0" d="M255.8,248.9v151.4h151.4V248.9H255.8z M355.9,260.7v51.4l-22-16.6c-0.7-0.5-1.6-0.8-2.4-0.8
					s-1.7,0.3-2.4,0.8l-22,16.6v-51.4H355.9z M395.4,383.8c0,2.5-2.1,4.6-4.6,4.6H272.3c-2.5,0-4.6-2.1-4.6-4.6V265.3
					c0-2.5,2.1-4.6,4.6-4.6h27v59.4c0,1.5,0.9,2.9,2.2,3.5c1.3,0.7,2.9,0.5,4.1-0.4l25.9-19.6l25.9,19.6c0.7,0.5,1.5,0.8,2.4,0.8
					c0.6,0,1.2-0.1,1.8-0.4c1.3-0.7,2.2-2,2.2-3.5v-59.4h27c2.5,0,4.6,2.1,4.6,4.6V383.8L395.4,383.8z"/>
			</g>
		</g>
	</g>
</g>
</svg>
