<?xml version="1.0" encoding="utf-8"?>
<!-- Generator: Adobe Illustrator 24.2.1, SVG Export Plug-In . SVG Version: 6.00 Build 0)  -->
<svg version="1.1" id="Layer_1" xmlns="http://www.w3.org/2000/svg" xmlns:xlink="http://www.w3.org/1999/xlink" x="0px" y="0px"
	 viewBox="0 0 512 512" style="enable-background:new 0 0 512 512;" xml:space="preserve">
<style type="text/css">
	.st0{fill:#5501AA;}
	.st1{fill:#59B02D;}
	.st2{fill:#DAAB19;}
</style>
<g>
	<g>
		<path class="st0" d="M256,512C114.8,512,0,397.2,0,256S114.8,0,256,0s256,114.8,256,256S397.2,512,256,512z M256,23.3
			C127.7,23.3,23.3,127.7,23.3,256S127.7,488.7,256,488.7S488.7,384.3,488.7,256S384.3,23.3,256,23.3z"/>
	</g>
	<g>
		<g>
			<g>
				<path class="st0" d="M358.9,410.3H108.1l34.5-21.9c8.1-5.1,17.9-12.6,27.5-19.7l4.6-3.4c5.8-4.3,11.2-8.4,16.2-11.9
					c38.8-27.1,39.8-42.8,37.2-52.2c-1.3-4.5-4.3-8-10.4-12.3l-3.6-2.5l2.9-3.3c0.1-0.1,10.1-11.6,14.2-28l0.3-1.3
					c0.1-0.4,0.1-0.6,0.2-0.8c0.1-0.4,0.1-0.7,0.2-1.1l0.5-4.7c0.1-1.4,0.1-2.8,0.1-4.2v-1.4c0-0.2,0-0.5,0-0.7l-0.1-0.6
					c0-0.1,0-0.2,0-0.4c0-0.3,0-0.6-0.1-0.9l-0.1-0.2l0-1c0-0.3,0-0.5-0.1-0.7c0-0.2-0.1-0.4-0.1-0.6c0-0.2-0.1-0.5-0.1-0.7l0-0.3
					c-0.1-0.8-0.2-1.4-0.3-2.1c-0.1-0.5-0.2-1.1-0.3-1.7l-0.1-0.3c0-0.2-0.1-0.4-0.1-0.6c-0.1-0.3-0.1-0.6-0.2-0.9l-0.1-0.2
					c-0.1-0.3-0.2-0.7-0.2-1.1c0-0.1-0.1-0.2-0.1-0.3c-0.1-0.3-0.2-0.6-0.2-1c0-0.1-0.1-0.3-0.1-0.5l-0.2-0.6
					c-0.2-0.6-0.3-1.1-0.5-1.6l-0.3-0.8c-0.4-1.1-0.7-2-1.1-3l-0.2-0.5c-0.1-0.2-0.2-0.4-0.3-0.6l-0.3-0.7c-0.2-0.4-0.3-0.7-0.4-0.9
					c-0.1-0.3-0.3-0.6-0.4-0.9l-0.4-0.8c-0.2-0.5-0.5-1-0.8-1.4l-0.2-0.4c-0.1-0.1-0.1-0.2-0.2-0.4l-0.2-0.3
					c-0.2-0.3-0.3-0.5-0.4-0.7l-0.2-0.4c-0.1-0.1-0.2-0.4-0.4-0.7c-4-6-9.2-11.7-15.5-16.9l-3.4-2.8l3.2-3
					c13.4-12.6,31.2-24.1,53.1-34.1l3.3-1.5l19.6,34.9l-2.7,2.1c-6.9,5.2-10.8,10.3-11.2,14.6c-0.3,2.2,2.7,6.2,11.9,10.7
					c7.6,3.8,15.9,6.6,25.3,9.4l0.8,0.2c12.4,4,25.3,8.2,37.1,15.8c22.6,14.7,37,37.4,41.8,65.6c5.7,33.6-3.7,71.4-24.6,98.6
					L358.9,410.3z M135.2,402.5h219.9l1.2-1.6c19.6-25.5,28.4-61,23.1-92.5c-4.4-26-17.7-46.9-38.4-60.3
					c-10.9-7.1-23.3-11.1-35.2-14.9l-0.7-0.2c-9.6-3-18.3-5.8-26.4-9.9c-11.5-5.7-17-12-16.2-18.7c0.7-5.8,4.6-11.8,11.6-17.8
					l-12.8-22.7c-17.9,8.5-32.9,18-44.5,28.3c4.8,4.4,9,9.1,12.4,14h1.9l0.1,2.9c0.1,0.2,0.2,0.3,0.2,0.4l0.2,0.3
					c0.3,0.4,0.5,0.8,0.7,1.1c0.5,0.7,0.8,1.4,1.1,2.1l0.4,0.8c0.2,0.3,0.3,0.7,0.5,1l0.4,0.9c0.1,0.2,0.3,0.5,0.4,0.8l0.1,0.2
					c0.2,0.4,0.5,0.9,0.7,1.5c0.4,0.9,0.7,1.9,1.1,2.8c0.2,0.4,0.3,0.8,0.5,1.3c0.2,0.5,0.4,1.1,0.5,1.7l0.2,0.5
					c0.2,0.5,0.3,0.9,0.4,1.5l0.1,0.4c0.1,0.3,0.2,0.7,0.3,1.1l0.1,0.2c0.1,0.3,0.2,0.7,0.3,1.1c0,0.1,0.1,0.3,0.1,0.4
					c0.1,0.3,0.2,0.7,0.2,1.1c0.2,0.8,0.3,1.7,0.4,2.5c0.1,0.6,0.1,1,0.2,1.5c0.1,0.3,0.1,0.6,0.1,1c0,0.1,0,0.2,0,0.4l0.1,0.5
					c0.1,0.3,0.1,0.6,0.1,0.9l0,0.3c0,0.1,0,0.3,0,0.4c0.1,0.5,0.1,1,0.1,1.3c0,0.1,0,0.2,0,0.4c0,0.2,0,0.5,0,0.7
					c0.1,0.7,0.1,1.3,0.1,1.7v1.4c0,1.6-0.1,3.1-0.2,4.6l0,0.3l-0.6,4.7c-0.1,0.6-0.1,1.1-0.2,1.6l-0.1,0.4c0,0.2-0.1,0.5-0.1,0.8
					l-0.2,1.1c-3.2,13.1-9.7,23.3-13.3,28.3c4.3,3.4,8.3,7.8,10.1,14.1c3.3,11.8,2.6,30.8-40.3,60.8c-4.9,3.4-10.3,7.4-16,11.7
					l-4.6,3.4c-9.7,7.3-19.7,14.8-28,20.1L135.2,402.5z"/>
			</g>
			<g>
				<path class="st0" d="M304.8,210.4c-4.4,0-8.1-2.2-10.1-5.9l-0.9-0.9l0-1l-9.8-20.7c-3.4-6.3-7.5-13.2-12.9-21.5
					c-0.8-1.2-1.6-2.5-2.2-3.8c-2.2-4.5-3.6-9.2-4-13.8c-0.3-2.5-0.3-5.1,0-7.8c2-19.6,18.3-35.2,37.8-36.1c11-0.5,21.6,3.4,29.6,11
					c7.9,7.5,12.5,18.1,12.5,29c0,0.9,0,1.9-0.1,2.8l-0.1,1.2c-0.6,6.3-2.8,12.5-6.2,17.7c-4.4,6.8-9,14-12.9,21.5l-9.8,20.6v1l-1,1
					C312.5,208.8,308.2,210.4,304.8,210.4z M304.3,199.8c0.1,0.1,0.3,0.1,0.5,0.1c0.2,0,0.4,0,0.5-0.1v-0.5l0.9-0.9l10-21.2
					c4.2-8.1,9-15.5,13.5-22.5c2.5-3.8,4-8.2,4.5-12.9l0-0.8c0-0.8,0.1-1.5,0.1-2.3c0-8.1-3.3-15.7-9.2-21.4
					c-5.9-5.6-13.7-8.5-21.9-8.1h0c-14.4,0.7-26.4,12.2-27.9,26.7c-0.2,2-0.2,3.9,0,5.8c0.3,3.5,1.3,6.9,2.9,10.2
					c0.4,0.9,0.9,1.8,1.5,2.7c5.6,8.6,9.8,15.7,13.4,22.4l0.8,1.7l9.3,19.7l0.9,0.9L304.3,199.8z"/>
			</g>
			<g>
				<path class="st0" d="M304.8,153.2c-1.1,0-2.1-0.1-3-0.3c-4-0.7-7.7-3-10.2-6.4c-2.1-2.9-3.2-6.3-3.2-9.7
					c0-9.1,7.4-16.4,16.5-16.4c9.1,0,16.4,7.4,16.4,16.4v0C321.2,145.9,313.8,153.2,304.8,153.2z M304.9,124.4
					c-6.8,0-12.4,5.6-12.4,12.4c0,2.6,0.9,5.2,2.4,7.3c1.9,2.5,4.7,4.3,7.8,4.8c0.6,0.1,1.3,0.2,2.2,0.2c6.8,0,12.4-5.6,12.5-12.4
					C317.3,130,311.7,124.4,304.9,124.4z"/>
			</g>
			<g>
				<path class="st0" d="M172.9,339.2c-4.1,0-9.3-1.9-12.1-7.3l-0.9-0.9l0-1l-13.6-28.8c-5.4-10.3-11.7-20.4-17.7-29.6
					c-4.5-6.9-7.2-14.9-8.1-23.1c-0.3-3.4-0.3-6.9,0-10.5c2.7-25.9,24.1-46.4,49.9-47.7c11.7-0.6,23,2.7,32.8,9.4
					c4.8,3.4,9.1,7.6,12.7,12.5l0.8,1.1c0.4,0.6,0.9,1.3,1.3,2c5.2,8.5,8,18.1,7.9,27.8c0,1.8-0.1,3.6-0.3,5.3
					c-0.4,4.4-1.4,8.9-3.2,13.5c-0.5,1.5-1.1,2.9-1.9,4.3c-0.9,1.9-2.1,3.8-3.1,5.4c-1.9,2.9-3.8,5.8-5.5,8.6
					c-5.2,8.5-9,15-12.3,21.1l-0.4,0.9l-13.8,29.1c0,0.1-0.1,0.1-0.1,0.2l-0.2,0.3C182.4,337.2,177.1,339.2,172.9,339.2z
					 M169.5,325.8L169.5,325.8l0.4,0.9c0.7,1.7,2,2,3,2c0.8,0,1.8-0.2,2.6-1.2v-0.8l0.9-1l13.8-29.2c4.4-8.3,9.1-16,12.7-21.9
					c1.8-2.9,3.7-5.8,5.6-8.7c0.8-1.3,1.8-3,2.5-4.5c0.5-1.1,1-2.1,1.4-3.2c1.4-3.8,2.3-7.3,2.6-10.8c0.1-1.5,0.2-2.9,0.2-4.4
					c0.1-7.8-2.1-15.4-6.3-22.2l0-0.1c-0.3-0.5-0.6-1-1-1.5l-0.6-0.9c-2.9-4-6.3-7.3-10.2-10c-7.8-5.4-16.9-8-26.3-7.5
					c-20.7,1-37.9,17.5-40,38.2c-0.3,2.9-0.3,5.6,0,8.4c0.7,6.6,2.9,13,6.4,18.5c6.1,9.5,12.6,19.8,18.2,30.5l0.6,1.1L169.5,325.8z"
					/>
			</g>
			<g>
				<path class="st0" d="M173,263.3c-12.5,0-22.7-10.2-22.7-22.7c0-12.5,10.2-22.7,22.7-22.7c5.5,0,10.8,2,14.9,5.6
					c5,4.3,7.8,10.6,7.8,17.2c0,6.3-2.7,12.3-7.4,16.6C184.1,261.2,178.7,263.3,173,263.3z M173,224c-9.2,0-16.6,7.5-16.6,16.6
					c0,9.2,7.5,16.6,16.6,16.6c4.1,0,8.1-1.6,11.2-4.4c3.4-3.2,5.4-7.6,5.4-12.2c0-4.8-2.1-9.4-5.7-12.6
					C180.8,225.4,177.1,224,173,224z"/>
			</g>
		</g>
		<g>
			<path class="st0" d="M236.2,247.6c0.1-1.5,0.2-2.9,0.2-4.5c0-0.5,0-0.9,0-1.4c0-0.5,0-0.9-0.1-1.4c0-0.5-0.1-0.9-0.1-1.4
				c0-0.2,0-0.5-0.1-0.8c0-0.4-0.1-0.9-0.1-1.2c0-0.2-0.1-0.5-0.1-0.8c-0.1-0.5-0.1-0.9-0.2-1.3c-0.1-0.5-0.2-1.1-0.2-1.7
				c-0.1-0.7-0.2-1.5-0.4-2.2c-0.1-0.5-0.2-1.1-0.3-1.5c-0.1-0.5-0.2-0.9-0.3-1.3c-0.1-0.5-0.2-0.9-0.3-1.3
				c-0.1-0.4-0.2-0.7-0.3-1.1c-0.2-0.8-0.5-1.5-0.7-2.2c-0.1-0.3-0.2-0.5-0.3-0.9c-0.4-1.1-0.8-2.1-1.2-3.1
				c-0.1-0.3-0.2-0.6-0.4-0.9c-0.2-0.3-0.3-0.7-0.5-1c-0.2-0.3-0.3-0.6-0.4-0.9c-0.3-0.6-0.6-1.3-0.9-1.9s-0.6-1.2-1-1.9
				c-0.2-0.3-0.3-0.6-0.5-0.9c-0.2-0.4-0.4-0.7-0.6-1.1c-0.2-0.2-0.3-0.5-0.5-0.8c0,0,0,0,0.1,0.1c10.8,16.3,11.1,32.3,8,45.4
				c0.1-0.4,0.2-0.7,0.2-1.1c0.1-0.3,0.1-0.5,0.2-0.9c0.1-0.5,0.2-0.9,0.2-1.5L236.2,247.6z"/>
		</g>
		<g>
			<polyline class="st0" points="263,158.8 270.8,172.8 271.3,173.5 279.2,187.5 			"/>
		</g>
		<g>
			<g>
				<path class="st0" d="M261.4,403.5c-0.7,1-1.5,2-2.2,3h-18.4l-2.9-2.7c3.6-3.5,7.1-7.1,10.5-10.9L261.4,403.5z"/>
			</g>
			<g>
				<path class="st0" d="M266.6,369.5c5.5-8.2,10.4-16.8,14.5-25.8l10.1,3.9c-3.4,10.1-7.7,19.7-12.7,29.1L266.6,369.5z"/>
			</g>
			<g>
				<path class="st0" d="M289.8,315.6c1.6-9.6,1.4-19.6-1-29.2l4.5-1.4c3.6,10,4.9,20.8,4.3,31.5L289.8,315.6z"/>
			</g>
			<g>
				<path class="st0" d="M274.8,260.2c-3.5-3.8-7.5-7.2-11.9-10.2c4.6,2.5,9,5.5,13,9L274.8,260.2z"/>
			</g>
		</g>
	</g>
</g>
</svg>
