<?xml version="1.0" encoding="utf-8"?>
<!-- Generator: Adobe Illustrator 24.2.1, SVG Export Plug-In . SVG Version: 6.00 Build 0)  -->
<svg version="1.1" id="Layer_1" xmlns="http://www.w3.org/2000/svg" xmlns:xlink="http://www.w3.org/1999/xlink" x="0px" y="0px"
	 viewBox="0 0 512 512" style="enable-background:new 0 0 512 512;" xml:space="preserve">
<style type="text/css">
	.st0{fill:#FFFFFF;}
</style>
<g>
	<path class="st0" d="M256,512C114.9,512,0,397.1,0,256S114.9,0,256,0s256,114.8,256,256S397.1,512,256,512z M256,23.3
		C127.7,23.3,23.3,127.7,23.3,256S127.7,488.7,256,488.7S488.7,384.3,488.7,256S384.3,23.3,256,23.3z"/>
	<g>
		<g>
			<path class="st0" d="M249.7,229.1c2.2,0,4.4,0.1,6.6,0.3c2.1-0.2,4.3-0.3,6.5-0.3H249.7z"/>
		</g>
		<g>
			<path class="st0" d="M256,95.4c-32.3,0-58.5,26.2-58.5,58.5s26.2,58.5,58.5,58.5s58.5-26.2,58.5-58.5S288.3,95.4,256,95.4z
				 M256,192.7c-21.4,0-38.8-17.4-38.8-38.8s17.4-38.8,38.8-38.8s38.8,17.4,38.8,38.8S277.4,192.7,256,192.7z"/>
		</g>
		<g>
			<path class="st0" d="M339.8,279.3c-2.8-6.3-6.3-12.2-10.5-17.6C314,241.9,290,229.2,263,229.1h-0.1c-2.2,0-4.4,0.1-6.5,0.3
				c-2.2-0.2-4.4-0.3-6.6-0.3h-0.7c-27,0-51,12.7-66.4,32.5c-4.2,5.4-7.7,11.3-10.5,17.6c-4.6,10.4-7.1,21.9-7.1,33.9v84.7h182
				v-84.7C347,301.2,344.4,289.7,339.8,279.3z M321.5,372.5H190.4v-59.3c0-3.3,0.3-6.6,0.8-9.7c1.5-9.3,5.3-17.8,10.7-25.1
				c3.9-5.3,8.7-9.9,14.2-13.7c3.1-2.1,6.4-3.9,9.8-5.4c0,0,0.1,0,0.1-0.1c9.1-4.1,19.3-6.4,30-6.4c11.4,0,22.2,2.6,31.9,7.3
				c1.5,0.7,3,1.5,4.4,2.3c0.2,0.1,0.4,0.3,0.7,0.4c6.7,4,12.5,9.3,17.2,15.6c5.4,7.3,9.1,15.9,10.7,25.2c0.5,3.1,0.8,6.3,0.8,9.5
				L321.5,372.5L321.5,372.5z"/>
		</g>
		<g>
			<path class="st0" d="M156.1,255.1h-9.3c-31.2,0-56.5,25.3-56.5,56.5v56.9h61.5V348h-41v-36.4c0-19.8,16.1-36,36-36h9.3
				c1.5,0,3,0.1,4.5,0.3c3.3-6.6,7.4-12.8,12.3-18.2C167.6,255.9,162,255.1,156.1,255.1z"/>
		</g>
		<g>
			<path class="st0" d="M151.5,165.3c-21.7,0-39.3,17.6-39.3,39.3s17.6,39.3,39.3,39.3s39.3-17.6,39.3-39.3
				C190.8,182.8,173.2,165.3,151.5,165.3z M151.5,227.4c-12.6,0-22.9-10.3-22.9-22.9c0-12.6,10.3-22.9,22.9-22.9
				c12.6,0,22.9,10.3,22.9,22.9C174.4,217.2,164.1,227.4,151.5,227.4z"/>
		</g>
		<g>
			<path class="st0" d="M365.2,255.1h-9.3c-5.6,0-11.1,0.8-16.2,2.4c4.9,5.5,9.1,11.7,12.4,18.3c1.2-0.1,2.5-0.2,3.8-0.2h9.3
				c19.8,0,36,16.1,36,36V348h-40.3v20.5h60.8v-56.9C421.6,280.3,396.4,255.1,365.2,255.1z"/>
		</g>
		<g>
			<path class="st0" d="M360.5,165.3c-21.7,0-39.3,17.6-39.3,39.3s17.6,39.3,39.3,39.3c21.7,0,39.3-17.6,39.3-39.3
				C399.8,182.8,382.2,165.3,360.5,165.3z M360.5,227.4c-12.6,0-22.9-10.3-22.9-22.9c0-12.6,10.3-22.9,22.9-22.9
				s22.9,10.3,22.9,22.9C383.4,217.2,373.2,227.4,360.5,227.4z"/>
		</g>
	</g>
</g>
</svg>
