<?xml version="1.0" encoding="utf-8"?>
<!-- Generator: Adobe Illustrator 18.0.0, SVG Export Plug-In . SVG Version: 6.00 Build 0)  -->
<svg version="1.1" id="Layer_1" xmlns="http://www.w3.org/2000/svg" xmlns:xlink="http://www.w3.org/1999/xlink" x="0px" y="0px"
	 viewBox="0 0 2020 566.7" enable-background="new 0 0 2020 566.7" xml:space="preserve">
<g>
	<path d="M11.1,250.1c3.1-17.8,9.5-34.6,18.9-50.4c9.5-15.8,21-29.4,34.5-40.9c13.5-11.5,28.7-20.6,45.5-27.3
		c16.8-6.7,34.3-10,52.5-10c20.6,0,39.1,4.7,55.6,14.2c16.5,9.4,29.2,21.9,38.2,37.3l15.4-87.3c1.1-6.1,6.3-10.5,12.5-10.5h0
		c7.9,0,13.8,7.1,12.5,14.9l-28.2,160.1c-3.2,18.2-9.5,35.1-19,50.7c-9.4,15.6-20.9,29.2-34.4,40.6c-13.5,11.5-28.8,20.6-45.7,27.3
		c-17,6.7-34.4,10-52.2,10c-18.2,0-34.5-3.3-48.9-10c-14.4-6.7-26.4-15.8-35.8-27.3c-9.5-11.5-16.2-25-20.1-40.6
		C8.3,285.1,7.9,268.2,11.1,250.1z M36.9,250.1c-2.5,14.1-2.1,27.4,1.2,39.9c3.3,12.5,8.7,23.4,16.4,32.7
		c7.6,9.3,17.2,16.6,28.8,22.1c11.5,5.5,24.4,8.2,38.4,8.2c14.1,0,27.8-2.7,41.3-8.2c13.5-5.5,25.7-12.9,36.6-22.1
		c10.9-9.3,20.2-20.1,27.9-32.7c7.7-12.5,12.8-25.8,15.3-39.9c2.5-14.1,2.1-27.4-1.2-39.9c-3.3-12.5-8.7-23.4-16.4-32.7
		c-7.6-9.3-17.2-16.6-28.8-22.1c-11.6-5.5-24.4-8.2-38.4-8.2c-14.1,0-27.8,2.7-41.3,8.2c-13.5,5.5-25.7,12.9-36.6,22.1
		c-10.9,9.3-20.2,20.2-27.9,32.7C44.4,222.7,39.4,236,36.9,250.1z"/>
	<path d="M409.8,353c21.9,0,42.4-5.8,61.2-17.5c17.1-10.6,31.1-24.4,42-41.4c2.2-3.4,6-5.4,10.1-5.4h0c9.8,0,15.6,11,10,19.1
		c-4.1,5.9-8.7,11.5-13.6,16.9c-10,11-21.1,20.4-33.3,28.3c-12.2,7.9-25.2,14.1-39.1,18.8c-13.9,4.6-27.8,6.9-41.9,6.9
		c-18.2,0-34.5-3.3-48.9-10c-14.4-6.7-26.4-15.8-35.8-27.3c-9.5-11.5-16.2-25-20.1-40.6c-3.9-15.6-4.3-32.5-1.1-50.7
		c3.1-17.8,9.5-34.6,18.9-50.4c9.5-15.8,21-29.4,34.5-40.9c13.5-11.5,28.7-20.6,45.5-27.3c16.8-6.7,34.3-10,52.5-10
		c17.8,0,34.1,3.3,48.7,10c14.6,6.7,26.6,15.8,36.1,27.3c9.5,11.5,16.2,25.1,20.1,40.9c3.9,15.8,4.3,32.6,1.1,50.4l-0.5,3
		c-1,5.7-6,9.9-11.8,9.9H508H322.7c-0.2,13,1.7,25,5.7,36c4.1,11,10,20.4,17.9,28.3c7.9,7.9,17.1,14.1,27.8,18.8
		C384.9,350.7,396.7,353,409.8,353z M446.1,147.2c-13,0-25.7,2.3-38,6.9c-12.3,4.6-23.8,10.9-34.4,18.8c-10.7,7.9-20,17.4-27.9,28.6
		c-8,11.2-14.1,23.1-18.4,35.8H527c3.4,0,6.2-2.9,6-6.4c-0.4-10.3-2.3-20.1-5.7-29.4c-4-11.1-10-20.7-17.9-28.6
		c-7.9-7.9-17.2-14.1-28.1-18.8C470.5,149.5,458.8,147.2,446.1,147.2z"/>
	<path d="M724.9,122.1c23.1-2.2,43.6,1,61.5,9.6c14.2,6.9,26.2,16.2,36,28c9.7,11.8,16.7,25.5,20.8,40.9c4.1,15.4,4.7,31.9,1.6,49.4
		l-20.8,118.2c-1.1,6.1-6.3,10.5-12.5,10.5h0c-7.9,0-13.8-7.1-12.5-14.9L819,250.1c2.5-14.1,2.1-27.4-1.2-39.9
		c-3.3-12.5-8.7-23.4-16.4-32.7c-7.6-9.3-17.2-16.6-28.8-22.1c-11.6-5.5-24.4-8.2-38.4-8.2c-14.1,0-27.8,2.7-41.3,8.2
		c-13.5,5.5-25.7,12.9-36.6,22.1c-10.9,9.3-20.2,20.2-27.9,32.7c-7.7,12.5-12.8,25.8-15.3,39.9l-20.8,118.2
		c-1.1,6.1-6.3,10.5-12.5,10.5l0,0c-7.9,0-13.8-7.1-12.5-14.9l20.1-113.8c3.1-17.5,9.3-34,18.7-49.4c9.4-15.4,20.9-29.1,34.5-40.9
		c13.9-12.1,29.6-21.7,46.9-28.6C699.5,126.4,712.1,123.4,724.9,122.1z"/>
	<path d="M1026.9,121.4c17.8,0,34.1,3.3,48.7,10c14.6,6.7,26.6,15.8,36.1,27.3c9.5,11.5,16.2,25.1,20.1,40.9
		c3.9,15.8,4.3,32.6,1.1,50.4l-21.1,119.7c-0.9,5.2-5.4,9-10.7,9h-3.7c-6.8,0-11.9-6.1-10.7-12.7l6.8-38.7
		c-14.4,15.4-31.5,27.9-51.3,37.3c-19.8,9.4-40.1,14.1-60.6,14.1c-18.2,0-34.5-3.3-48.9-10c-14.4-6.7-26.4-15.8-35.8-27.3
		c-9.5-11.5-16.2-25-20.1-40.6c-3.9-15.6-4.3-32.5-1.1-50.7c3.1-17.8,9.5-34.6,18.9-50.4c9.5-15.8,21-29.4,34.5-40.9
		c13.5-11.5,28.7-20.6,45.5-27.3C991.2,124.8,1008.7,121.4,1026.9,121.4z M986.1,353c14.1,0,27.8-2.7,41.3-8.2
		c13.5-5.5,25.7-12.9,36.6-22.1c10.9-9.3,20.2-20.1,27.9-32.7c7.7-12.5,12.8-25.8,15.3-39.9c2.5-14.1,2.1-27.4-1.2-39.9
		c-3.3-12.5-8.7-23.4-16.4-32.7c-7.6-9.3-17.2-16.6-28.8-22.1c-11.6-5.5-24.4-8.2-38.4-8.2c-14.1,0-27.8,2.7-41.3,8.2
		c-13.5,5.5-25.7,12.9-36.6,22.1c-10.9,9.3-20.2,20.2-27.9,32.7c-7.7,12.5-12.8,25.8-15.3,39.9c-2.5,14.1-2.1,27.4,1.2,39.9
		c3.3,12.5,8.7,23.4,16.4,32.7c7.6,9.3,17.2,16.6,28.8,22.1C959.2,350.2,972,353,986.1,353z"/>
	<path d="M1315.1,121.4c17.5,0,33.4,3.3,47.6,10c14.3,6.7,26.3,15.8,36.1,27.3c9.8,11.5,16.7,25.1,20.8,40.9
		c3.2,12.4,4.2,25.5,2.9,39.2c-0.6,6.4-6.1,11.3-12.6,11.3h-0.5c-7.2,0-13-6.1-12.6-13.3c0.4-9.2-0.5-18.1-2.7-26.6
		c-3.3-12.5-8.7-23.4-16.4-32.7c-7.6-9.3-17.2-16.6-28.8-22.1c-11.6-5.5-24.4-8.2-38.4-8.2c-14.1,0-27.8,2.7-41.3,8.2
		c-13.5,5.5-25.7,12.9-36.6,22.1c-10.9,9.3-20.2,20.2-27.9,32.7c-7.7,12.5-12.8,25.8-15.3,39.9l-21.1,119.7c-0.9,5.2-5.4,9-10.7,9
		h-3.7c-6.8,0-11.9-6.1-10.7-12.7l20.4-115.9c3.1-17.8,9.5-34.6,18.9-50.4c9.5-15.8,21-29.4,34.5-40.9
		c13.5-11.5,28.7-20.6,45.5-27.3C1279.4,124.8,1296.9,121.4,1315.1,121.4z"/>
	<path d="M1431.4,366l41.3-234.1c1.1-6.1,6.3-10.5,12.5-10.5h0c7.9,0,13.8,7.1,12.5,14.9l-41.2,233.4c-0.9,5.2-5.4,9-10.7,9h-3.7
		C1435.4,378.7,1430.3,372.6,1431.4,366z"/>
	<path d="M1659.8,121.4c17.5,0,33.4,3.3,47.6,10c14.3,6.7,26.3,15.8,36.1,27.3c9.8,11.5,16.7,25.1,20.8,40.9
		c4.1,15.8,4.5,32.6,1.4,50.4c-3.2,18.2-9.6,35.1-19.2,50.7c-9.6,15.6-21.3,29.2-35.2,40.6c-13.9,11.5-29.1,20.6-45.7,27.3
		c-16.6,6.7-33.7,10-51.2,10c-18.2,0-34.5-3.3-48.9-10c-14.4-6.7-26.4-15.8-35.8-27.3c-9.5-11.5-16.2-25-20.1-40.6
		c-3.9-15.6-4.3-32.5-1.1-50.7c3.1-17.8,9.5-34.6,18.9-50.4c9.5-15.8,21-29.4,34.5-40.9c13.5-11.5,28.7-20.6,45.5-27.3
		C1624.1,124.8,1641.6,121.4,1659.8,121.4z M1619,353c14.1,0,27.8-2.7,41.3-8.2c13.5-5.5,25.7-12.9,36.6-22.1
		c10.9-9.3,20.2-20.1,27.9-32.7c7.7-12.5,12.8-25.8,15.3-39.9c2.5-14.1,2.1-27.4-1.2-39.9c-3.3-12.5-8.7-23.4-16.4-32.7
		c-7.6-9.3-17.2-16.6-28.8-22.1c-11.6-5.5-24.4-8.2-38.4-8.2c-14.1,0-27.8,2.7-41.3,8.2c-13.5,5.5-25.7,12.9-36.6,22.1
		c-10.9,9.3-20.2,20.2-27.9,32.7c-7.7,12.5-12.8,25.8-15.3,39.9c-2.5,14.1-2.1,27.4,1.2,39.9c3.3,12.5,8.7,23.4,16.4,32.7
		c7.6,9.3,17.2,16.6,28.8,22.1C1592.1,350.2,1604.9,353,1619,353z"/>
	<circle fill="#5501AA" cx="1795.6" cy="354.9" r="38"/>
	<circle fill="#5501AA" cx="1737.3" cy="431" r="38"/>
	<circle fill="#5501AA" cx="1655.1" cy="463.3" r="32"/>
	<circle fill="#5501AA" cx="1581.2" cy="467.1" r="30"/>
	<circle fill="#5501AA" cx="1515.2" cy="439.5" r="26"/>
	<circle fill="#F5BA2E" cx="1765" cy="48.6" r="38"/>
	<circle fill="#F5BA2E" cx="1501.2" cy="60.6" r="46"/>
	<circle fill="#F5BA2E" cx="1861.9" cy="68.8" r="36"/>
	<circle fill="#F5BA2E" cx="1935.7" cy="118" r="30"/>
	<circle fill="#F5BA2E" cx="1973.3" cy="186.2" r="26.6"/>
	<circle fill="#F5BA2E" cx="1986.5" cy="254.4" r="24.5"/>
	<circle fill="#F5BA2E" cx="1974.4" cy="317.8" r="20.4"/>
	<circle fill="#91BA3F" cx="1875.5" cy="203" r="40"/>
	<circle fill="#91BA3F" cx="1903.5" cy="290.9" r="36"/>
	<circle fill="#91BA3F" cx="1899.5" cy="378.9" r="30"/>
	<circle fill="#91BA3F" cx="1855.5" cy="438.8" r="26"/>
	<circle fill="#91BA3F" cx="1807.6" cy="482.8" r="24"/>
	<circle fill="#91BA3F" cx="1743.6" cy="502.8" r="20"/>
	<circle fill="#91BA3F" cx="1743.6" cy="502.8" r="20"/>
</g>
<g>
	<path fill="#5501AA" d="M580.8,533.5h-28.6l29-117.2h56.4c10,0,18,1,23.8,3c5.8,2,10.5,5.3,13.9,9.9c3.4,4.6,5.1,10.1,5.1,16.5
		c0,5.9-1.4,11.7-4.1,17.3c-2.7,5.6-6,10.1-10,13.4c-3.9,3.4-8.2,5.9-12.7,7.6c-4.5,1.7-10.7,3.1-18.3,4c-4.5,0.5-12.9,0.8-25.2,0.8
		h-18.3L580.8,533.5z M596.6,469.4h8.8c15.1,0,25.1-0.8,30.2-2.4c5-1.6,9-4.2,11.9-7.7c2.9-3.5,4.4-7.4,4.4-11.6
		c0-2.8-0.7-5.1-2.2-7c-1.5-1.8-3.6-3.1-6.2-4c-2.7-0.8-8.7-1.2-17.9-1.2H605L596.6,469.4z"/>
	<path fill="#5501AA" d="M710.6,533.5h-28.6l29-117.2h61.6c10.6,0,18.8,0.9,24.7,2.8c5.9,1.8,10.7,5.2,14.3,10.1
		c3.6,4.9,5.4,10.8,5.4,17.8c0,10-3.5,18.2-10.6,24.7c-7.1,6.5-17.7,10.5-32.1,12c3.7,2.8,7.1,6.4,10.3,11
		c6.4,9.2,13.5,22.1,21.3,38.9h-30.6c-2.5-6.6-7.3-16.9-14.5-30.9c-3.9-7.6-8.1-12.7-12.5-15.3c-2.7-1.5-7.4-2.3-14.2-2.3h-11.6
		L710.6,533.5z M727,467.4h15.1c15.3,0,25.5-0.8,30.5-2.3c5-1.5,8.9-4,11.8-7.3c2.8-3.3,4.3-6.8,4.3-10.4c0-4.3-2-7.5-6.1-9.6
		c-2.5-1.3-8-1.9-16.4-1.9h-31.4L727,467.4z"/>
	<path fill="#5501AA" d="M821.4,533.5l28.9-117.2h102.8l-4.8,19.6H874l-6.6,26.6h71.8l-4.8,19.6h-71.8l-8.7,31.8h80.7l-4.9,19.6
		H821.4z"/>
	<path fill="#5501AA" d="M1030.3,533.5h-27l-5-97.9l-22,97.9h-25.7l28.9-117.2h40.7l4.3,82.1l47.3-82.1h41.1l-29,117.2h-26
		l27.3-97.2L1030.3,533.5z"/>
	<path fill="#5501AA" d="M1110.7,533.5l29-117.2h28.5l-28.9,117.2H1110.7z"/>
	<path fill="#5501AA" d="M1194.7,416.3h28.5l-15.7,63.6l-3.9,15.7c-0.3,1.3-0.4,2.6-0.4,3.8c0,4.6,2,8.5,6,11.5
		c4,3,9.8,4.5,17.4,4.5c6.9,0,12.5-1.1,17-3.3c4.5-2.2,7.9-5.4,10.4-9.8c2.5-4.3,4.9-11.6,7.5-22l15.9-64h28.5l-15.8,64.1
		c-3.3,13.5-7.2,23.8-11.5,30.9c-4.3,7.1-10.9,13-19.8,17.4c-8.8,4.5-20,6.7-33.5,6.7c-16.1,0-28.5-3.3-37.1-10
		c-8.6-6.7-12.9-15.3-12.9-25.8c0-2.2,0.2-4.6,0.7-7.1c0.3-1.7,1.4-6.6,3.3-14.6L1194.7,416.3z"/>
	<path fill="#5501AA" d="M1385.3,533.5h-27l-5-97.9l-22,97.9h-25.7l28.9-117.2h40.7l4.3,82.1l47.3-82.1h41.1l-29,117.2h-26
		l27.3-97.2L1385.3,533.5z"/>
</g>
</svg>
