<?xml version="1.0" encoding="utf-8"?>
<!-- Generator: Adobe Illustrator 24.2.1, SVG Export Plug-In . SVG Version: 6.00 Build 0)  -->
<svg version="1.1" id="Layer_1" xmlns="http://www.w3.org/2000/svg" xmlns:xlink="http://www.w3.org/1999/xlink" x="0px" y="0px"
	 viewBox="0 0 512 512" style="enable-background:new 0 0 512 512;" xml:space="preserve">
<style type="text/css">
	.st0{fill:#FFFFFF;}
</style>
<g>
	<g>
		<path class="st0" d="M256,512C114.8,512,0,397.2,0,256S114.8,0,256,0s256,114.8,256,256S397.2,512,256,512z M256,23.3
			C127.7,23.3,23.3,127.7,23.3,256S127.7,488.7,256,488.7S488.7,384.3,488.7,256S384.3,23.3,256,23.3z"/>
	</g>
	<g>
		<g>
			<g>
				<g>
					<g>
						<g>
							<path class="st0" d="M294.4,100.3c-5.5,0-10,4.5-10,10c0,4.4,2.8,8.1,6.8,9.4c1,0.4,2.1,0.5,3.2,0.5s2.2-0.2,3.2-0.5
								c3.9-1.3,6.8-5.1,6.8-9.4C304.4,104.8,299.9,100.3,294.4,100.3z M294.4,117.6c-4,0-7.3-3.3-7.3-7.3s3.3-7.3,7.3-7.3
								s7.3,3.3,7.3,7.3C301.7,114.3,298.4,117.6,294.4,117.6z"/>
						</g>
					</g>
				</g>
			</g>
			<g>
				<g>
					<path class="st0" d="M267.1,167.2c-1.3-1.3-3-2.2-5-2.2h-12c-3.7,0-6.8,3-6.8,6.8v12c0,3.7,3,6.8,6.8,6.8h12
						c3.7,0,6.8-3,6.8-6.8v-12C268.9,170,268.2,168.4,267.1,167.2z M266,183.8c0,2.1-1.7,3.9-3.9,3.9h-12c-2.1,0-3.9-1.7-3.9-3.9
						v-12c0-2.1,1.7-3.9,3.9-3.9h12c1.3,0,2.4,0.6,3.1,1.6c0.5,0.6,0.8,1.4,0.8,2.3V183.8z"/>
				</g>
			</g>
			<g>
				<g>
					<path class="st0" d="M262.1,200.4h-12c-3.7,0-6.8,3-6.8,6.8v12c0,3.7,3,6.8,6.8,6.8h12c3.7,0,6.8-3,6.8-6.8v-12
						C268.9,203.4,265.9,200.4,262.1,200.4z M266,219.2c0,2.1-1.7,3.9-3.9,3.9h-12c-2.1,0-3.9-1.7-3.9-3.9v-12
						c0-2.1,1.7-3.9,3.9-3.9h12c2.1,0,3.9,1.7,3.9,3.9V219.2z"/>
				</g>
			</g>
			<g>
				<g>
					<path class="st0" d="M266.8,237.6c-1.2-1.2-2.9-1.9-4.7-1.9h-12c-3.7,0-6.8,3-6.8,6.8v12c0,3.7,3,6.8,6.8,6.8h12
						c3.7,0,6.8-3,6.8-6.8v-12C268.9,240.6,268.1,238.8,266.8,237.6z M266,254.5c0,2.1-1.7,3.9-3.9,3.9h-12c-2.1,0-3.9-1.7-3.9-3.9
						v-12c0-2.1,1.7-3.9,3.9-3.9h12c1.1,0,2.1,0.5,2.8,1.3c0.6,0.7,1,1.6,1,2.6v12H266z"/>
				</g>
			</g>
			<g>
				<g>
					<path class="st0" d="M262.1,293.7h-2.9l5.1,2.5V293C263.8,293.4,263,293.7,262.1,293.7z M244.3,285.9c-0.3,0-0.6,0-0.9,0.1
						l2.9,1.4v-1.6h-2V285.9z M262.1,271.1h-12c-3.4,0-6.3,2.6-6.7,5.9h2.9c0.4-1.7,1.9-3,3.8-3h12c1.9,0,3.4,1.3,3.8,3h2.9
						C268.4,273.7,265.6,271.1,262.1,271.1z"/>
				</g>
			</g>
			<g>
				<g>
					<g>
						<g>
							<path class="st0" d="M343.3,180.5h-64.8c-1.1,0-1.9-1.2-1.9-2.7s0.9-2.7,1.9-2.7h64.8c1.1,0,1.9,1.2,1.9,2.7
								S344.4,180.5,343.3,180.5z"/>
						</g>
					</g>
				</g>
			</g>
			<g>
				<g>
					<g>
						<g>
							<path class="st0" d="M343.3,215.9h-64.8c-1.1,0-1.9-1.2-1.9-2.7s0.9-2.7,1.9-2.7h64.8c1.1,0,1.9,1.2,1.9,2.7
								S344.4,215.9,343.3,215.9z"/>
						</g>
					</g>
				</g>
			</g>
			<g>
				<g>
					<g>
						<g>
							<path class="st0" d="M343.3,253.7h-64.8c-1.1,0-1.9-1.2-1.9-2.7s0.9-2.7,1.9-2.7h64.8c1.1,0,1.9,1.2,1.9,2.7
								S344.4,253.7,343.3,253.7z"/>
						</g>
					</g>
				</g>
			</g>
			<g>
				<g>
					<g>
						<g>
							<path class="st0" d="M306.5,285.9v0.7h-28c-0.5,0-0.9-0.3-1.3-0.7H306.5z"/>
						</g>
						<g>
							<path class="st0" d="M334.5,286.5h-22.1v-0.7h20.1C333.2,285.9,333.9,286.1,334.5,286.5z"/>
						</g>
						<g>
							<path class="st0" d="M345.3,283.9c0,0.7-0.2,1.4-0.6,1.9V282C345,282.4,345.3,283.1,345.3,283.9z"/>
						</g>
					</g>
				</g>
			</g>
			<g>
				<g>
					<g>
						<path class="st0" d="M257.5,186.3L257.5,186.3c-0.9,0-1.7-0.4-2.3-1.1l-7.4-9.8c-0.9-1.3-0.7-3,0.6-4c1.3-0.9,3-0.7,4,0.6
							l5.2,6.9l15-18.5c1-1.2,2.8-1.4,4-0.4s1.4,2.8,0.4,4l-17.3,21.3C259.2,186,258.4,186.3,257.5,186.3z"/>
					</g>
				</g>
			</g>
			<g>
				<g>
					<g>
						<path class="st0" d="M257.5,256.4L257.5,256.4c-0.9,0-1.7-0.4-2.3-1.1l-7.4-9.8c-0.9-1.3-0.7-3,0.6-4c1.3-0.9,3-0.7,4,0.6
							l5.2,6.9l15-18.5c1-1.2,2.8-1.4,4-0.4s1.4,2.8,0.4,4l-17.3,21.3C259.2,256,258.4,256.4,257.5,256.4z"/>
					</g>
				</g>
			</g>
		</g>
		<g>
			<g>
				<path class="st0" d="M232,164.4v54.7l0.1,57.9L232,164.4L232,164.4z"/>
			</g>
		</g>
		<g>
			<g>
				<path class="st0" d="M358.6,119.8h-13.4c-3.4-5-9.2-8.2-15.7-8.2h-6.2c-2.3-14-14.5-24.4-28.8-24.4c-14.2,0-26.5,10.4-28.8,24.4
					h-6.5c-6.5,0-12.2,3.3-15.7,8.2h-13.3c-1.2,0-2.4,0.2-3.5,0.5c-4.8,1.3-8.4,5.3-8.9,10.2c0,0.4,0,0.7,0,1.1v0.9v31.9h-98.4
					v225.3h225.3v-50.8h13.9c6.9,0,12.5-5.3,12.5-11.8V131.6C371.1,125.1,365.5,119.8,358.6,119.8z M157.6,173.2h36.2v38.3
					l-16.3-12.4c-0.5-0.4-1.1-0.6-1.8-0.6s-1.3,0.2-1.8,0.6l-16.3,12.4L157.6,173.2L157.6,173.2z M223.3,377.4
					c0,1.9-1.5,3.4-3.4,3.4h-88.1c-1.9,0-3.4-1.5-3.4-3.4v-88.2c0-1.9,1.5-3.4,3.4-3.4h20.1V330c0,1.1,0.6,2.1,1.6,2.6
					s2.2,0.4,3.1-0.3l19.3-14.6l19.3,14.6c0.5,0.4,1.1,0.6,1.8,0.6c0.4,0,0.9-0.1,1.3-0.3c1-0.5,1.6-1.5,1.6-2.6v-44.2H220
					c1.9,0,3.4,1.5,3.4,3.4v88.2H223.3z M157.6,324.1v-38.3h36.2v38.3l-16.3-12.4c-0.5-0.4-1.1-0.6-1.8-0.6s-1.3,0.2-1.8,0.6
					L157.6,324.1z M223.3,264.8c0,1.9-1.5,3.4-3.4,3.4h-88.1c-1.9,0-3.4-1.5-3.4-3.4v-88.1c0-1.9,1.5-3.4,3.4-3.4h20.1v44.2
					c0,1.1,0.6,2.1,1.6,2.6s2.2,0.4,3.1-0.3l19.3-14.6l19.3,14.6c0.5,0.4,1.1,0.6,1.8,0.6c0.4,0,0.9-0.1,1.3-0.3
					c1-0.5,1.6-1.5,1.6-2.6v-44.2H220c1.9,0,3.4,1.5,3.4,3.4v88.1H223.3z M248.3,130.7c0-5.5,4-10,9.3-10.9c0.6-0.1,1.1-0.1,1.8-0.1
					h7.3c3.6,0,6.6-2.7,7.1-6.2c1.4-10.4,10.4-18.2,20.9-18.2s19.5,7.8,20.9,18.2c0.5,3.5,3.5,6.2,7.1,6.2h7c0.6,0,1.2,0.1,1.8,0.1
					c5.2,0.8,9.3,5.4,9.3,10.9v7.2h-92.3v-7.2H248.3z M232,219.1V138c0-2.6,2.2-4.7,4.9-4.7h3.2V146h108.5v-12.7h3.2
					c2.7,0,5,2.1,5,4.7v164.9h-12.1V277H232.1L232,219.1z M306.5,285.9v38.3l-16.3-12.4c-0.5-0.4-1.1-0.6-1.8-0.6
					c-0.6,0-1.3,0.2-1.8,0.6l-16.3,12.4v-38.3H306.5z M335.9,377.4c0,1.9-1.5,3.4-3.4,3.4h-88.2c-1.9,0-3.4-1.5-3.4-3.4v-88.2
					c0-1.6,1-2.9,2.5-3.3c0.3-0.1,0.6-0.1,0.9-0.1h20.1V330c0,1.1,0.6,2.1,1.6,2.6s2.2,0.4,3.1-0.3l9.3-7l10-7.6l10,7.6l9.3,7
					c0.5,0.4,1.1,0.6,1.8,0.6c0.4,0,0.9-0.1,1.3-0.3c1-0.5,1.6-1.5,1.6-2.6v-44.2h20.1c0.8,0,1.5,0.2,2,0.7c0.8,0.6,1.4,1.6,1.4,2.7
					L335.9,377.4L335.9,377.4z M356.8,314.7l-11.3,10.6l-0.8,0.8v-14.5H360L356.8,314.7z"/>
			</g>
		</g>
	</g>
</g>
</svg>
