<?xml version="1.0" encoding="utf-8"?>
<!-- Generator: Adobe Illustrator 24.2.1, SVG Export Plug-In . SVG Version: 6.00 Build 0)  -->
<svg version="1.1" id="Layer_1" xmlns="http://www.w3.org/2000/svg" xmlns:xlink="http://www.w3.org/1999/xlink" x="0px" y="0px"
	 viewBox="0 0 512 512" style="enable-background:new 0 0 512 512;" xml:space="preserve">
<style type="text/css">
	.st0{fill:#FFFFFF;}
</style>
<g>
	<g>
		<path class="st0" d="M256,512C114.9,512,0,397.1,0,256S114.9,0,256,0s256,114.8,256,256S397.1,512,256,512z M256,23.3
			C127.7,23.3,23.3,127.7,23.3,256S127.7,488.7,256,488.7S488.7,384.3,488.7,256S384.3,23.3,256,23.3z"/>
	</g>
	<g id="Layer_3_18_">
		<g>
			<g>
				<path class="st0" d="M396.1,360.6h-22.8V223.5c20.5-2.5,36.4-20,36.4-41.2c0-0.3,0-0.6,0-0.9c-0.1-4-0.7-7.8-1.9-11.5l0,0
					l-7.1-13.4L366.1,91c-0.8-1.6-2.5-2.6-4.3-2.6H151c-1.8,0-3.5,1-4.3,2.6l-33.4,63.1l-10,19l-1,7.4c0,0.6,0,1.2,0,1.7
					c0,21.9,17,39.8,38.4,41.4v136.9h-24.8c-4.7,0-8.6,3.8-8.6,8.6v36.5c0,4.7,3.8,8.6,8.6,8.6h280.2c4.7,0,8.6-3.8,8.6-8.6v-36.5
					C404.7,364.5,400.8,360.6,396.1,360.6z M373.4,213.6c-1.7,0.3-3.3,0.4-5.1,0.4c-4.1,0-7.9-0.8-11.5-2.2
					c-6.3-2.5-11.6-6.9-15.2-12.5l0,0c-3.1-4.8-4.9-10.6-5-16.7H400C399.8,198.3,388.3,211.2,373.4,213.6z M358.9,98.2l1.5,2.9
					l13,24.5l9.5,17.9l9.8,18.5l5.8,10.9h-63.8l-2.7-10.5l0,0l-17-64.2H358.9L358.9,98.2z M261.5,98.2H305l13.4,51l6.2,23.8h-63.1
					V98.2L261.5,98.2z M325.1,182.7c-0.2,17.3-14.3,31.4-31.7,31.4c-17.4,0-31.5-14-31.7-31.4H325.1L325.1,182.7z M251.7,98.2V173
					h-63.4l0.3-1.3l0,0l5.8-23.1l0,0l12.7-50.3L251.7,98.2L251.7,98.2z M250.3,182.7c-0.2,17.3-14.4,31.4-31.7,31.4
					s-31.5-14-31.7-31.4H250.3L250.3,182.7z M121.3,159.9L121.3,159.9l8.9-16.8l10.5-19.8l10.1-19.2l3.1-5.9h43.3l-16.5,65.4
					l-1.3,5.3l-1,4.1h-63.9L121.3,159.9z M112,182.7h63.4c0,0.7,0,1.3-0.1,2l0,0c-0.3,3.7-1.2,7.3-2.7,10.6l0,0
					c-3.1,6.9-8.6,12.5-15.4,15.8c-4.1,1.9-8.7,3-13.5,3c-1,0-2,0-3-0.1C124.7,212.4,112.2,199,112,182.7z M157.3,221.5
					c3.6-1.3,7-3,10.1-5.1c5.9-4.1,10.7-9.7,13.8-16.2c0.1,0.2,0.2,0.3,0.2,0.5c6.8,13.7,20.9,23.2,37.2,23.2
					c13.5,0,25.6-6.5,33.2-16.6c1.6-2.2,3.1-4.5,4.3-7c1.5,3.1,3.3,6,5.5,8.6c7.6,9.2,19.1,15.1,31.9,15.1
					c16.5,0,30.7-9.7,37.4-23.6c0.5,1.1,1.1,2.1,1.7,3.1l0,0c3.4,5.8,8.1,10.7,13.8,14.2c3.2,2,6.7,3.6,10.5,4.7v138.4H157.3V221.5z
					 M394.9,404.5H117.1v-34.1H395v34.1H394.9z"/>
			</g>
			<g>
				<g>
					<path class="st0" d="M253.1,276.7c1,0,2,0,3,0.1c1-0.1,2-0.1,3-0.1H253.1z"/>
				</g>
				<g>
					<path class="st0" d="M256,215.6c-14.8,0-26.7,12-26.7,26.7s12,26.7,26.7,26.7c14.8,0,26.7-12,26.7-26.7S270.7,215.6,256,215.6z
						 M256,260.1c-9.8,0-17.7-8-17.7-17.7s8-17.7,17.7-17.7c9.8,0,17.7,8,17.7,17.7S265.8,260.1,256,260.1z"/>
				</g>
				<g>
					<path class="st0" d="M294.3,299.6c-1.3-2.9-2.9-5.6-4.8-8.1c-7-9-18-14.9-30.3-14.9h-0.1c-1,0-2,0-3,0.1c-1-0.1-2-0.1-3-0.1
						h-0.3c-12.3,0-23.3,5.8-30.4,14.9c-1.9,2.5-3.5,5.2-4.8,8.1c-2.1,4.7-3.3,10-3.3,15.5v38.7h83.2v-38.7
						C297.6,309.6,296.4,304.4,294.3,299.6z M285.9,342.2H226v-27.1c0-1.5,0.1-3,0.4-4.4c0.7-4.2,2.4-8.1,4.9-11.5
						c1.8-2.4,4-4.5,6.5-6.2c1.4-1,2.9-1.8,4.5-2.5c0,0,0,0,0.1,0c4.2-1.9,8.8-2.9,13.7-2.9c5.2,0,10.2,1.2,14.6,3.3
						c0.7,0.3,1.4,0.7,2,1.1c0.1,0.1,0.2,0.1,0.3,0.2c3.1,1.8,5.7,4.3,7.8,7.1c2.5,3.3,4.2,7.3,4.9,11.5c0.2,1.4,0.4,2.9,0.4,4.3
						L285.9,342.2L285.9,342.2z"/>
				</g>
				<g>
					<path class="st0" d="M210.4,288.5h-4.2c-14.3,0-25.8,11.6-25.8,25.8v26h28.1V331h-18.7v-16.6c0-9.1,7.4-16.4,16.4-16.4h4.2
						c0.7,0,1.4,0,2.1,0.1c1.5-3,3.4-5.8,5.6-8.3C215.6,288.9,213,288.5,210.4,288.5z"/>
				</g>
				<g>
					<path class="st0" d="M208.2,247.5c-9.9,0-18,8-18,18c0,9.9,8,18,18,18s18-8,18-18C226.2,255.6,218.2,247.5,208.2,247.5z
						 M208.2,275.9c-5.8,0-10.5-4.7-10.5-10.5s4.7-10.5,10.5-10.5s10.5,4.7,10.5,10.5C218.7,271.2,214,275.9,208.2,275.9z"/>
				</g>
				<g>
					<path class="st0" d="M305.9,288.5h-4.2c-2.6,0-5.1,0.4-7.4,1.1c2.2,2.5,4.1,5.3,5.7,8.4c0.6-0.1,1.1-0.1,1.7-0.1h4.2
						c9.1,0,16.4,7.4,16.4,16.4V331h-18.4v9.4h27.8v-26C331.7,300.1,320.1,288.5,305.9,288.5z"/>
				</g>
				<g>
					<path class="st0" d="M303.8,247.5c-9.9,0-18,8-18,18c0,9.9,8,18,18,18c9.9,0,18-8,18-18C321.7,255.6,313.7,247.5,303.8,247.5z
						 M303.8,275.9c-5.8,0-10.5-4.7-10.5-10.5s4.7-10.5,10.5-10.5s10.5,4.7,10.5,10.5C314.2,271.2,309.5,275.9,303.8,275.9z"/>
				</g>
			</g>
		</g>
	</g>
</g>
</svg>
