<?xml version="1.0" encoding="utf-8"?>
<!-- Generator: Adobe Illustrator 18.0.0, SVG Export Plug-In . SVG Version: 6.00 Build 0)  -->
<!DOCTYPE svg PUBLIC "-//W3C//DTD SVG 1.1//EN" "http://www.w3.org/Graphics/SVG/1.1/DTD/svg11.dtd">
<svg version="1.1" id="Layer_1" xmlns="http://www.w3.org/2000/svg" xmlns:xlink="http://www.w3.org/1999/xlink" x="0px" y="0px"
	 viewBox="0 0 100 100" enable-background="new 0 0 100 100" xml:space="preserve">
<g>
	<ellipse fill="none" stroke="#5501AB" stroke-width="2.5714" stroke-miterlimit="10" cx="49.1" cy="46.9" rx="41.9" ry="42.1"/>
	<g>
		<defs>
			<ellipse id="SVGID_3_" cx="54.6" cy="54.3" rx="44.1" ry="44.3"/>
		</defs>
		<clipPath id="SVGID_1_">
			<use xlink:href="#SVGID_3_"  overflow="visible"/>
		</clipPath>
		
			<ellipse clip-path="url(#SVGID_1_)" fill="none" stroke="#5501AB" stroke-width="3.4989" stroke-miterlimit="10" cx="48.9" cy="46.8" rx="41.9" ry="42.1"/>
	</g>
</g>
<g>
	<path fill="#5501AB" d="M40.8,39.6c-0.8-0.2-1.7-0.2-2.5-0.2c-3.5,0.1-6.8,1.6-8.3,5.3c-0.6,1.3-0.9,2.8-0.9,4.3
		c0,2.5,1.2,4.9,2.8,6.6c0.1,0.1,0.2,0.2,0.3,0.2c0,0,6.5,6.2,6.5,6.2c0.2,0.2,7.2-6.8,7.7-7.5c1.2-1.5,2.1-3.3,2.1-5.4
		C48.3,44,45,40.4,40.8,39.6z M38.7,51.6c-1.4,0-2.6-1.3-2.6-2.9c0-1.6,1.1-2.9,2.6-2.9c1.4,0,2.6,1.3,2.6,2.9
		C41.3,50.3,40.1,51.6,38.7,51.6z"/>
	<path fill="#5501AB" d="M63.4,26.6c-1-0.2-2.3-0.3-3.3-0.1c-1.2,0.1-2.3,0.5-3.4,1.1c-2.1,1.2-3.6,3.3-3.9,6.1
		c-0.3,2.8,0.8,5.7,2.7,7.5c0,0,5.8,5.5,5.8,5.5c0.2,0.2,6.4-6.1,6.9-6.7c1.1-1.4,1.9-3,1.9-4.9c0-2.1-0.7-4.1-1.9-5.6
		C67.1,27.9,65.3,27,63.4,26.6z M61.5,37.3c-1.3,0-2.3-1.2-2.3-2.6c0-1.5,1-2.6,2.3-2.6s2.3,1.2,2.3,2.6
		C63.8,36.1,62.8,37.3,61.5,37.3z"/>
	<path fill="#5501AB" d="M47,44l3.8-1.2h2l-5.1,2.8c0,0,0.7,2.1,0.6,3.5c0,0,10.4,0.9,16.2,2.7c2.8,0.9,7.4,2.2,8.8,5.4
		c1.9,4.2-2.3,7.6-4.7,10H45.9c0,0,12.6-5.2,12.7-9.6c0,0,2.8-2-10.5-7"/>
</g>
</svg>
