<svg id="Layer_1" data-name="Layer 1" xmlns="http://www.w3.org/2000/svg" viewBox="0 0 512 512"><defs><style>.cls-1{fill:#fff;}</style></defs><path class="cls-1" d="M256,512C114.8,512,0,397.2,0,256S114.8,0,256,0,512,114.8,512,256,397.2,512,256,512Zm0-488.7C127.7,23.3,23.3,127.7,23.3,256S127.7,488.7,256,488.7,488.7,384.3,488.7,256,384.3,23.3,256,23.3Z"/><path class="cls-1" d="M358.9,410.3H108.1l34.5-21.9c8.1-5.1,17.9-12.6,27.5-19.7l4.6-3.4c5.8-4.3,11.2-8.4,16.2-11.9,38.8-27.1,39.8-42.8,37.2-52.2-1.3-4.5-4.3-8-10.4-12.3l-3.6-2.5,2.9-3.3a74.14,74.14,0,0,0,14.2-28l.3-1.3a4.54,4.54,0,0,1,.2-.8c.1-.4.1-.7.2-1.1l.5-4.7c.1-1.4.1-2.8.1-4.2v-2.1l-.1-.6v-.4a2.77,2.77,0,0,0-.1-.9l-.1-.2v-1a1.48,1.48,0,0,0-.1-.7c0-.2-.1-.4-.1-.6s-.1-.5-.1-.7v-.3c-.1-.8-.2-1.4-.3-2.1-.1-.5-.2-1.1-.3-1.7l-.1-.3c0-.2-.1-.4-.1-.6s-.1-.6-.2-.9l-.1-.2a3.59,3.59,0,0,1-.2-1.1c0-.1-.1-.2-.1-.3a3,3,0,0,1-.2-1,4.33,4.33,0,0,1-.1-.5l-.2-.6c-.2-.6-.3-1.1-.5-1.6l-.3-.8c-.4-1.1-.7-2-1.1-3l-.2-.5-.3-.6-.3-.7c-.2-.4-.3-.7-.4-.9s-.3-.6-.4-.9l-.4-.8a6.38,6.38,0,0,0-.8-1.4l-.2-.4c-.1-.1-.1-.2-.2-.4l-.2-.3a5.74,5.74,0,0,1-.4-.7l-.2-.4c-.1-.1-.2-.4-.4-.7a78.74,78.74,0,0,0-15.5-16.9l-3.4-2.8,3.2-3c13.4-12.6,31.2-24.1,53.1-34.1l3.3-1.5L284,188.7l-2.7,2.1c-6.9,5.2-10.8,10.3-11.2,14.6-.3,2.2,2.7,6.2,11.9,10.7,7.6,3.8,15.9,6.6,25.3,9.4l.8.2c12.4,4,25.3,8.2,37.1,15.8,22.6,14.7,37,37.4,41.8,65.6,5.7,33.6-3.7,71.4-24.6,98.6Zm-223.7-7.8H355.1l1.2-1.6c19.6-25.5,28.4-61,23.1-92.5-4.4-26-17.7-46.9-38.4-60.3-10.9-7.1-23.3-11.1-35.2-14.9l-.7-.2c-9.6-3-18.3-5.8-26.4-9.9-11.5-5.7-17-12-16.2-18.7.7-5.8,4.6-11.8,11.6-17.8l-12.8-22.7c-17.9,8.5-32.9,18-44.5,28.3a84.73,84.73,0,0,1,12.4,14h1.9l.1,2.9c.1.2.2.3.2.4l.2.3c.3.4.5.8.7,1.1a10.6,10.6,0,0,1,1.1,2.1l.4.8c.2.3.3.7.5,1l.4.9a5.94,5.94,0,0,1,.4.8l.1.2a10.74,10.74,0,0,1,.7,1.5c.4.9.7,1.9,1.1,2.8.2.4.3.8.5,1.3a8.45,8.45,0,0,1,.5,1.7l.2.5a6.58,6.58,0,0,1,.4,1.5l.1.4c.1.3.2.7.3,1.1l.1.2c.1.3.2.7.3,1.1,0,.1.1.3.1.4a3.59,3.59,0,0,1,.2,1.1,21.66,21.66,0,0,1,.4,2.5c.1.6.1,1,.2,1.5a3.08,3.08,0,0,1,.1,1v.4l.1.5a2.77,2.77,0,0,1,.1.9v.7a6.64,6.64,0,0,1,.1,1.3v1.1a11.56,11.56,0,0,1,.1,1.7v1.4c0,1.6-.1,3.1-.2,4.6v.3l-.6,4.7c-.1.6-.1,1.1-.2,1.6l-.1.4c0,.2-.1.5-.1.8l-.2,1.1a83.84,83.84,0,0,1-13.3,28.3c4.3,3.4,8.3,7.8,10.1,14.1,3.3,11.8,2.6,30.8-40.3,60.8-4.9,3.4-10.3,7.4-16,11.7l-4.6,3.4c-9.7,7.3-19.7,14.8-28,20.1Z"/><path class="cls-1" d="M304.8,210.4a11.18,11.18,0,0,1-10.1-5.9l-.9-.9v-1L284,181.9c-3.4-6.3-7.5-13.2-12.9-21.5a28.84,28.84,0,0,1-2.2-3.8,39.48,39.48,0,0,1-4-13.8,33.9,33.9,0,0,1,0-7.8c2-19.6,18.3-35.2,37.8-36.1a40.17,40.17,0,0,1,42.1,40,26.2,26.2,0,0,1-.1,2.8l-.1,1.2a39.56,39.56,0,0,1-6.2,17.7c-4.4,6.8-9,14-12.9,21.5l-9.8,20.6v1l-1,1A11.22,11.22,0,0,1,304.8,210.4Zm-.5-10.6a1.3,1.3,0,0,0,1,0v-.5l.9-.9,10-21.2c4.2-8.1,9-15.5,13.5-22.5a28.88,28.88,0,0,0,4.5-12.9V141c0-.8.1-1.5.1-2.3a29.58,29.58,0,0,0-31.1-29.5h0a29.86,29.86,0,0,0-27.9,26.7,28.1,28.1,0,0,0,0,5.8,29,29,0,0,0,2.9,10.2,18.21,18.21,0,0,0,1.5,2.7c5.6,8.6,9.8,15.7,13.4,22.4l.8,1.7,9.3,19.7.9.9Z"/><path class="cls-1" d="M304.8,153.2a13.86,13.86,0,0,1-3-.3,16.25,16.25,0,0,1-10.2-6.4,16.43,16.43,0,1,1,29.7-9.7h0A16.56,16.56,0,0,1,304.8,153.2Zm.1-28.8a12.46,12.46,0,0,0-12.4,12.4,12.75,12.75,0,0,0,2.4,7.3,12.43,12.43,0,0,0,7.8,4.8,12.48,12.48,0,0,0,14.7-12.2A12.6,12.6,0,0,0,304.9,124.4Z"/><path class="cls-1" d="M172.9,339.2a13.48,13.48,0,0,1-12.1-7.3l-.9-.9v-1l-13.6-28.8c-5.4-10.3-11.7-20.4-17.7-29.6a52.9,52.9,0,0,1-8.1-23.1,61.35,61.35,0,0,1,0-10.5c2.7-25.9,24.1-46.4,49.9-47.7a52.87,52.87,0,0,1,32.8,9.4,55.75,55.75,0,0,1,12.7,12.5l.8,1.1c.4.6.9,1.3,1.3,2a52.32,52.32,0,0,1,7.9,27.8,45.78,45.78,0,0,1-.3,5.3,49,49,0,0,1-3.2,13.5,23.46,23.46,0,0,1-1.9,4.3,54.75,54.75,0,0,1-3.1,5.4c-1.9,2.9-3.8,5.8-5.5,8.6-5.2,8.5-9,15-12.3,21.1l-.4.9-13.8,29.1c0,.1-.1.1-.1.2l-.2.3A13.52,13.52,0,0,1,172.9,339.2Zm-3.4-13.4h0l.4.9a3,3,0,0,0,3,2,3.15,3.15,0,0,0,2.6-1.2v-.8l.9-1,13.8-29.2c4.4-8.3,9.1-16,12.7-21.9,1.8-2.9,3.7-5.8,5.6-8.7a47.88,47.88,0,0,0,2.5-4.5c.5-1.1,1-2.1,1.4-3.2a41.3,41.3,0,0,0,2.6-10.8c.1-1.5.2-2.9.2-4.4a41.08,41.08,0,0,0-6.3-22.2v-.1a13,13,0,0,0-1-1.5l-.6-.9a42.39,42.39,0,0,0-36.5-17.5c-20.7,1-37.9,17.5-40,38.2a39.31,39.31,0,0,0,0,8.4,43.06,43.06,0,0,0,6.4,18.5c6.1,9.5,12.6,19.8,18.2,30.5l.6,1.1Z"/><path class="cls-1" d="M173,263.3a22.68,22.68,0,1,1,22.7-22.6A22.83,22.83,0,0,1,173,263.3Zm0-39.3a16.6,16.6,0,1,0,0,33.2,16.6,16.6,0,1,0,0-33.2Z"/><path class="cls-1" d="M236.2,247.6c.1-1.5.2-2.9.2-4.5v-1.4a6.6,6.6,0,0,0-.1-1.4c0-.5-.1-.9-.1-1.4a2.49,2.49,0,0,0-.1-.8c0-.4-.1-.9-.1-1.2s-.1-.5-.1-.8c-.1-.5-.1-.9-.2-1.3a8.81,8.81,0,0,1-.2-1.7,17,17,0,0,0-.4-2.2c-.1-.5-.2-1.1-.3-1.5s-.2-.9-.3-1.3-.2-.9-.3-1.3-.2-.7-.3-1.1c-.2-.8-.5-1.5-.7-2.2a9.44,9.44,0,0,1-.3-.9c-.4-1.1-.8-2.1-1.2-3.1a3.55,3.55,0,0,0-.4-.9c-.2-.3-.3-.7-.5-1a3.55,3.55,0,0,1-.4-.9c-.3-.6-.6-1.3-.9-1.9s-.6-1.2-1-1.9c-.2-.3-.3-.6-.5-.9s-.4-.7-.6-1.1a5.58,5.58,0,0,1-.5-.8l.1.1c10.8,16.3,11.1,32.3,8,45.4a4.25,4.25,0,0,0,.2-1.1c.1-.3.1-.5.2-.9a6.8,6.8,0,0,0,.2-1.5Z"/><polyline class="cls-1" points="263 158.8 270.8 172.8 271.3 173.5 279.2 187.5"/><path class="cls-1" d="M261.4,403.5c-.7,1-1.5,2-2.2,3H240.8l-2.9-2.7c3.6-3.5,7.1-7.1,10.5-10.9Z"/><path class="cls-1" d="M266.6,369.5a181.37,181.37,0,0,0,14.5-25.8l10.1,3.9a192.74,192.74,0,0,1-12.7,29.1Z"/><path class="cls-1" d="M289.8,315.6a71.93,71.93,0,0,0-1-29.2l4.5-1.4a80,80,0,0,1,4.3,31.5Z"/><path class="cls-1" d="M274.8,260.2A68.85,68.85,0,0,0,262.9,250a71.83,71.83,0,0,1,13,9Z"/></svg>